PathFileType	4	(X/Y/Z)	/Users/itak/Documents/Research/Walk-IL/dataset/trc/00223_00009.trc
DataRate	CameraRate	NumFrames	NumMarkers	Units	OrigDataRate	OrigDataStartFrame	OrigNumFrames
100.000000	100.000000	4	53	mm	100.000000	184	492
Frame#	Time	RPSI			LPSI			L3			STRN			T10			C7			CLAV			RBAK			LBAK			LSHO			LUPA			LAEL			LAOL			LWTS			LWPS			LFRA			LIFD			LHPS			LHTS			RSHO			RUPA			RAEL			RAOL			RWTS			RWPS			RFRA			RIFD			RHTS			RHPS			RBHD			LFHD			RFHD			LBHD			LHIP			RHIP			RASI			LASI			LKNE			LTHI			LANK			LTIP			LTOE			LMT1			LMT5			LHEE			RKNE			RANK			RTIP			RTOE			RMT1			RMT5			RHEE			RTHI			
		X1	Y1	Z1	X2	Y2	Z2	X3	Y3	Z3	X4	Y4	Z4	X5	Y5	Z5	X6	Y6	Z6	X7	Y7	Z7	X8	Y8	Z8	X9	Y9	Z9	X10	Y10	Z10	X11	Y11	Z11	X12	Y12	Z12	X13	Y13	Z13	X14	Y14	Z14	X15	Y15	Z15	X16	Y16	Z16	X17	Y17	Z17	X18	Y18	Z18	X19	Y19	Z19	X20	Y20	Z20	X21	Y21	Z21	X22	Y22	Z22	X23	Y23	Z23	X24	Y24	Z24	X25	Y25	Z25	X26	Y26	Z26	X27	Y27	Z27	X28	Y28	Z28	X29	Y29	Z29	X30	Y30	Z30	X31	Y31	Z31	X32	Y32	Z32	X33	Y33	Z33	X34	Y34	Z34	X35	Y35	Z35	X36	Y36	Z36	X37	Y37	Z37	X38	Y38	Z38	X39	Y39	Z39	X40	Y40	Z40	X41	Y41	Z41	X42	Y42	Z42	X43	Y43	Z43	X44	Y44	Z44	X45	Y45	Z45	X46	Y46	Z46	X47	Y47	Z47	X48	Y48	Z48	X49	Y49	Z49	X50	Y50	Z50	X51	Y51	Z51	X52	Y52	Z52	X53	Y53	Z53	

185	1.84	-791.513427734375	1037.470947265625	-96.00046539306641	-788.3237915039062	1044.210083007812	24.14844131469727	-787.991943359375	1134.437744140625	-16.68238639831543	-1046.056274414062	1307.905517578125	-2.466946601867676	-787.2640380859375	1261.640747070312	-17.69107437133789	-864.7210693359375	1519.254516601562	-9.126080513000488	-1026.37646484375	1427.687377929688	-3.804059028625488	-784.8007202148438	1387.341674804688	-88.12564086914062	-840.692626953125	1481.392700195312	103.8520431518555	-930.4454956054688	1477.901245117188	159.5155029296875	-909.8141479492188	1361.515502929688	242.6133270263672	-948.8177490234375	1153.397338867188	273.6774597167969	-876.7112426757812	1126.43310546875	232.7937622070312	-1081.812622070312	945.8074951171875	203.7644195556641	-1065.296264648438	919.9011840820312	282.7437744140625	-993.2742919921875	1051.880004882812	283.2388000488281	-1134.472045898438	757.3856201171875	202.8743438720703	-1102.375366210938	837.22509765625	272.0733947753906	-1140.20166015625	854.5712280273438	219.3304290771484	-930.5924682617188	1476.537109375	-176.6763153076172	-909.7911987304688	1413.633544921875	-245.4732055664062	-863.1546020507812	1135.442504882812	-280.2171020507812	-839.3516845703125	1127.456420898438	-188.1130828857422	-979.8563232421875	907.6087036132812	-271.8980712890625	-915.9395751953125	903.1602172851562	-326.123291015625	-879.7593994140625	1066.490844726562	-298.4657592773438	-974.4232177734375	713.9887084960938	-278.0177001953125	-1002.526489257812	784.8588256835938	-299.2566833496094	-942.5198974609375	792.652587890625	-339.1601867675781	-898.8750610351562	1661.821166992188	-57.36563873291016	-1098.335327148438	1719.188354492188	37.0972900390625	-1097.953491210938	1716.231323242188	-63.04022216796875	-943.8843383789062	1674.168579101562	75.35214233398438	-884.6130981445312	985.726806640625	169.6508026123047	-896.1504516601562	1003.954772949219	-197.5295867919922	-988.8712768554688	1049.627563476562	-154.113525390625	-986.2638549804688	1029.813354492188	125.9693145751953	-992.3305053710938	508.70947265625	113.5812454223633	-966.4678955078125	650.165283203125	145.9218139648438	-879.643310546875	38.73450088500977	82.29168701171875	-935.0501098632812	280.9875183105469	107.0726776123047	-1091.780883789062	46.84968185424805	17.63838195800781	-1021.662170410156	42.73715209960938	-22.52788925170898	-1010.860961914062	38.74536514282227	94.46482849121094	-816.0104370117188	49.47433090209961	32.62852096557617	-1098.5361328125	546.208251953125	-166.8350372314453	-948.1064453125	74.21465301513672	-168.2552032470703	-1097.603759765625	424.405517578125	-155.5602111816406	-1155.192260742188	66.02692413330078	-124.888427734375	-1100.3876953125	63.15821075439453	-81.51999664306641	-1056.488525390625	60.57984161376953	-191.3546142578125	-885.8754272460938	84.333251953125	-110.1739883422852	-1011.506408691406	801.7702026367188	-201.8051910400391	
186	1.85	-786.4708862304688	1037.93994140625	-96.08013916015625	-783.1333618164062	1044.588256835938	24.06938362121582	-782.6788330078125	1134.797485351562	-16.76250457763672	-1040.313110351562	1308.67724609375	-2.115503072738647	-781.7566528320312	1261.991333007812	-17.79612350463867	-858.6004638671875	1519.751953125	-9.01120662689209	-1020.307067871094	1428.412109375	-3.413708209991455	-779.0298461914062	1387.652954101562	-88.06299591064453	-834.3775024414062	1481.821899414062	103.8764114379883	-924.069091796875	1478.4677734375	159.7512359619141	-903.0086059570312	1362.129638671875	242.8943786621094	-941.1126708984375	1153.922729492188	274.3051452636719	-869.0440063476562	1127.103515625	233.0943908691406	-1074.965576171875	947.0697631835938	204.0574340820312	-1058.076782226562	920.6671752929688	283.0241394042969	-985.7039794921875	1052.427856445312	283.7422485351562	-1128.4033203125	758.863525390625	202.7059783935547	-1095.546142578125	838.25048828125	272.2371215820312	-1133.616943359375	856.0159912109375	219.638671875	-924.7135620117188	1477.119384765625	-176.4750213623047	-904.0316162109375	1414.196655273438	-245.2891540527344	-857.0696411132812	1136.161987304688	-280.0410461425781	-833.4652709960938	1128.127319335938	-187.8337249755859	-972.3261108398438	907.5642700195312	-272.6691284179688	-908.17724609375	903.7859497070312	-326.6795349121094	-873.2127685546875	1067.243286132812	-298.4253234863281	-965.0907592773438	713.9663696289062	-279.2874450683594	-993.8096923828125	784.6552734375	-300.4185180664062	-933.7898559570312	793.102294921875	-340.1299133300781	-892.5792846679688	1662.352661132812	-57.21602630615234	-1091.781616210938	1720.050170898438	37.63264465332031	-1091.641845703125	1717.095825195312	-62.52690505981445	-937.3427734375	1674.79541015625	75.56128692626953	-879.3001098632812	986.25244140625	169.6449737548828	-891.1567993164062	1004.497253417969	-197.4748077392578	-983.914306640625	1050.29443359375	-153.9868011474609	-981.005859375	1030.499877929688	126.1065216064453	-987.9027099609375	509.4830322265625	113.5203475952148	-961.6603393554688	650.8078002929688	145.92333984375	-879.6094970703125	38.5986328125	82.50614166259766	-932.6780395507812	281.3761291503906	107.0556640625	-1091.627563476562	46.9588623046875	17.67215156555176	-1021.552429199219	42.73749160766602	-22.51509666442871	-1010.814575195312	38.7506103515625	94.45183563232422	-815.9044189453125	49.12427520751953	32.74668121337891	-1090.485961914062	544.9080200195312	-166.4650421142578	-925.1519775390625	78.19235992431641	-168.8822326660156	-1086.2412109375	423.3109436035156	-155.1404266357422	-1131.737548828125	64.28832244873047	-124.9142837524414	-1076.750366210938	62.74757385253906	-81.64019775390625	-1033.147705078125	61.56120681762695	-191.6882781982422	-863.0802001953125	89.95427703857422	-110.9871292114258	-1005.920776367188	801.568359375	-201.2539367675781	
187	1.86	-781.4371948242188	1038.320922851562	-96.16451263427734	-777.9677124023438	1044.884033203125	23.98557281494141	-777.3831176757812	1135.082397460938	-16.87931442260742	-1034.548217773438	1309.400268554688	-1.823792695999146	-776.2445068359375	1262.257080078125	-17.9544677734375	-852.4489135742188	1520.177124023438	-8.984772682189941	-1014.200439453125	1429.0830078125	-3.08306097984314	-773.2218627929688	1387.871948242188	-88.07942962646484	-828.0064086914062	1482.18017578125	103.8183517456055	-917.6234130859375	1478.966430664062	159.9155731201172	-896.1362915039062	1362.684448242188	243.1043243408203	-933.408203125	1154.38525390625	274.8610229492188	-861.2971801757812	1127.73583984375	233.3567047119141	-1067.843139648438	948.0679931640625	204.2301025390625	-1050.622924804688	921.276611328125	283.2853698730469	-978.0133666992188	1052.88671875	284.1767883300781	-1121.835205078125	760.0319213867188	202.5960388183594	-1088.395385742188	839.138427734375	272.4598083496094	-1126.66064453125	857.166259765625	219.9177093505859	-918.8253784179688	1477.634887695312	-176.3431549072266	-898.2762451171875	1414.698120117188	-245.1768188476562	-851.0741577148438	1136.801025390625	-279.9823608398438	-827.6056518554688	1128.718994140625	-187.7013092041016	-965.0643310546875	907.5491333007812	-273.4035034179688	-900.7457885742188	904.3624267578125	-327.255615234375	-866.8095703125	1067.918090820312	-298.486328125	-956.1897583007812	713.9794311523438	-280.4028015136719	-985.4806518554688	784.4839477539062	-301.4443359375	-925.4752807617188	793.5167236328125	-341.0222778320312	-886.2574462890625	1662.845092773438	-57.14006805419922	-1085.23291015625	1720.824829101562	38.0728645324707	-1085.315795898438	1717.86328125	-62.11752319335938	-930.7872924804688	1675.37890625	75.69001007080078	-874.0538940429688	986.7274169921875	169.6160583496094	-886.145751953125	1004.950256347656	-197.4465789794922	-978.96630859375	1050.894653320312	-153.9206237792969	-975.7787475585938	1031.137817382812	126.1880416870117	-983.6019897460938	510.2090454101562	113.4784698486328	-956.9756469726562	651.40283203125	145.9308166503906	-879.5902709960938	38.48005294799805	82.72397613525391	-930.4017944335938	281.751708984375	107.0536041259766	-1091.48828125	47.0744743347168	17.69078636169434	-1021.456359863281	42.74772262573242	-22.50822067260742	-1010.773559570312	38.75837326049805	94.43605804443359	-815.818359375	48.79669570922852	32.87140274047852	-1082.0400390625	543.4134521484375	-166.09814453125	-902.1249389648438	82.35861206054688	-169.5117950439453	-1074.507202148438	422.1098022460938	-154.7536468505859	-1108.06103515625	62.74235153198242	-124.9762496948242	-1052.910522460938	62.56584167480469	-81.77935791015625	-1009.65087890625	62.70419692993164	-192.0319671630859	-840.2825317382812	95.79161834716797	-111.7875366210938	-1000.212768554688	801.1931762695312	-200.8363647460938	
188	1.87	-776.4098510742188	1038.617919921875	-96.25251007080078	-772.8181762695312	1045.099487304688	23.89790725708008	-772.1000366210938	1135.287963867188	-17.02673530578613	-1028.753051757812	1310.076293945312	-1.585134863853455	-770.7130126953125	1262.437255859375	-18.15950393676758	-846.2620849609375	1520.527221679688	-9.050876617431641	-1008.066101074219	1429.69970703125	-2.818255662918091	-767.3751831054688	1388.00146484375	-88.18225860595703	-821.584716796875	1482.4677734375	103.6734008789062	-911.1002197265625	1479.4013671875	160.0067596435547	-889.1880493164062	1363.180053710938	243.2407379150391	-925.7024536132812	1154.78466796875	275.3316955566406	-853.4922485351562	1128.327392578125	233.5628662109375	-1060.424072265625	948.782958984375	204.3258972167969	-1042.93359375	921.7246704101562	283.5297241210938	-970.2088623046875	1053.26318359375	284.5454711914062	-1114.754150390625	760.8737182617188	202.5584564208984	-1080.898559570312	839.8607788085938	272.7436218261719	-1119.326416015625	858.0004272460938	220.1781768798828	-912.9307250976562	1478.080322265625	-176.2837829589844	-892.5234375	1415.134643554688	-245.1386566162109	-845.1550903320312	1137.357421875	-280.044189453125	-821.7631225585938	1129.230834960938	-187.7209625244141	-958.0726318359375	907.5607299804688	-274.087890625	-893.6536865234375	904.8822631835938	-327.8472290039062	-860.5482788085938	1068.51220703125	-298.6580200195312	-947.766357421875	714.024169921875	-281.3708801269531	-977.5659790039062	784.3450927734375	-302.3274230957031	-917.6032104492188	793.8902587890625	-341.8376770019531	-879.9086303710938	1663.303588867188	-57.13839340209961	-1078.687377929688	1721.509643554688	38.41524887084961	-1078.972412109375	1718.5341796875	-61.80622482299805	-924.2117919921875	1675.918090820312	75.74102783203125	-868.8775024414062	987.1380004882812	169.5702514648438	-881.1179809570312	1005.316162109375	-197.4450378417969	-974.0146484375	1051.427001953125	-153.9076843261719	-970.5706176757812	1031.72021484375	126.2201995849609	-979.417724609375	510.8857421875	113.4525604248047	-952.4037475585938	651.9464721679688	145.9420928955078	-879.580078125	38.37751388549805	82.93865203857422	-928.2164306640625	282.1104125976562	107.0656890869141	-1091.366821289062	47.19754791259766	17.68983840942383	-1021.37451171875	42.76675415039062	-22.51021003723145	-1010.735473632812	38.76830673217773	94.41611480712891	-815.7560424804688	48.48881149291992	33.0015869140625	-1073.176147460938	541.747802734375	-165.7485656738281	-879.0949096679688	86.67475128173828	-170.1359558105469	-1062.411010742188	420.8204040527344	-154.4198303222656	-1084.246215820312	61.40845489501953	-125.0951538085938	-1028.9638671875	62.62431716918945	-81.95619964599609	-986.063720703125	63.9985237121582	-192.3912353515625	-817.5463256835938	101.7882614135742	-112.5566482543945	-994.3659057617188	800.653076171875	-200.5243072509766	
